# xmcd CD database file
#
# Track frame offsets:
#	150
#	15585
#	55006
#	88252
#	117899
#	148194
#	176105
#
# Disc length: 2714 seconds
#
# Revision: 0
# Processed by: cddbd v1.4PL0 Copyright (c) Steve Scherf et al.
# Submitted via: CDex 1.51
#
DISCID=5c0a9807
DTITLE=Lionel Hampton - Portrait
DYEAR=1978
DGENRE=Jazz
TTITLE0=Airmail Special
TTITLE1=Blues For Oliver
TTITLE2=It Don't Mean A Thing If It Ain't Got That Swing
TTITLE3=Basin' Street Blues
TTITLE4=Oliver Twist
TTITLE5=Sunny Side Of The Street
TTITLE6=When The Saints Go Marching In (Traditional)
EXTD=YEAR: 1978
EXTT0=
EXTT1=
EXTT2=
EXTT3=
EXTT4=
EXTT5=
EXTT6=
PLAYORDER=
